<?xml version="1.0" encoding="UTF-8"?>
<svg width="20px" height="18px" viewBox="0 0 20 18" version="1.1" xmlns="http://www.w3.org/2000/svg" xmlns:xlink="http://www.w3.org/1999/xlink">
    <!-- Generator: Sketch Beta 52.5 (67469) - http://www.bohemiancoding.com/sketch -->
    <title>Shape</title>
    <desc>Created with Sketch Beta.</desc>
    <g id="Page-1" stroke="none" stroke-width="1" fill="none" fill-rule="evenodd">
        <g id="hamburger" fill="#FFFFFF" fill-rule="nonzero">
            <path d="M20,11 C20,10.1 19.6,9.3 19,8.8 C18.9,3.9 14.9,0 10,0 C5.1,0 1.1,3.9 1,8.8 C0.4,9.3 0,10.1 0,11 C0,11.9 0.4,12.7 1,13.2 L1,14.5 C1,16.4 2.6,18 4.5,18 L15.5,18 C17.4,18 19,16.4 19,14.5 L19,13.2 C19.6,12.7 20,11.9 20,11 Z M18,11 C18,11.6 17.6,12 17,12 L3,12 C2.4,12 2,11.6 2,11 C2,10.4 2.4,10 3,10 L17,10 C17.6,10 18,10.4 18,11 Z M10,2 C13.5,2 16.4,4.6 16.9,8 L3.1,8 C3.6,4.6 6.5,2 10,2 Z M17,14.5 C17,15.3 16.3,16 15.5,16 L4.5,16 C3.7,16 3,15.3 3,14.5 L3,14 L17,14 L17,14.5 Z" id="Shape"></path>
        </g>
    </g>
</svg>