<svg width="305" height="74" viewBox="0 0 305 74" xmlns="http://www.w3.org/2000/svg"><g fill="#FFF" fill-rule="evenodd"><path d="M17.343 19.825c-2.674 0-4.889.909-6.651 2.73-1.76 1.82-2.642 4.203-2.642 7.142 0 2.999.883 5.425 2.642 7.278 1.762 1.853 3.977 2.778 6.65 2.778 2.593 0 4.774-.942 6.546-2.823 1.772-1.884 2.656-4.285 2.656-7.205 0-2.895-.869-5.27-2.61-7.125-1.74-1.85-3.937-2.775-6.591-2.775zm-8.92-6.955v3.725c1.534-1.53 3.193-2.68 4.974-3.445 1.782-.764 3.686-1.15 5.718-1.15 4.415 0 8.164 1.666 11.252 5C33.455 20.333 35 24.605 35 29.82c0 5.028-1.596 9.235-4.788 12.62-3.19 3.384-6.971 5.077-11.343 5.077-1.95 0-3.762-.35-5.44-1.044-1.677-.692-3.347-1.823-5.006-3.396V59H0V12.87h8.423zm49.172 6.84c-2.624 0-4.8.912-6.538 2.736-1.732 1.828-2.601 4.169-2.601 7.021 0 2.877.88 5.244 2.646 7.1 1.767 1.854 3.94 2.782 6.523 2.782 2.664 0 4.875-.911 6.628-2.737 1.756-1.827 2.634-4.217 2.634-7.173 0-2.895-.878-5.243-2.634-7.038-1.753-1.794-3.975-2.69-6.658-2.69zm8.921-6.853H75v33.284h-8.484v-3.516c-1.657 1.55-3.319 2.664-4.985 3.346-1.664.684-3.472 1.029-5.417 1.029-4.366 0-8.145-1.668-11.331-5.003C41.593 38.66 40 34.515 40 29.56c0-5.14 1.541-9.35 4.627-12.634C47.71 13.642 51.455 12 55.867 12c2.027 0 3.931.38 5.711 1.133 1.782.755 3.423 1.888 4.938 3.395v-3.67zM82 12.854h7.213v4.173c.78-1.644 1.819-2.893 3.112-3.747A7.558 7.558 0 0 1 96.58 12c1.09 0 2.23.286 3.421.854l-2.62 7.157c-.986-.484-1.796-.73-2.436-.73-1.293 0-2.386.795-3.28 2.376-.897 1.585-1.342 4.693-1.342 9.323l.032 1.616V46H82V12.854zM104 0h8.389v27.07l12.353-13.979h10.534l-14.399 16.254L137 47h-10.412l-14.199-15.63V47H104V0zm57.383 17.508l-5.258 5.17c-2.136-2.08-4.073-3.12-5.812-3.12-.954 0-1.7.197-2.24.596-.538.399-.807.893-.807 1.482 0 .45.17.86.512 1.24.342.377 1.187.893 2.535 1.545l3.11 1.53c3.274 1.592 5.522 3.21 6.744 4.862 1.225 1.653 1.833 3.59 1.833 5.814 0 2.959-1.1 5.426-3.308 7.403-2.207 1.979-5.169 2.97-8.877 2.97-4.935 0-8.872-1.899-11.815-5.693l5.225-5.6a11.977 11.977 0 0 0 3.496 2.772c1.339.7 2.524 1.054 3.562 1.054 1.117 0 2.019-.262 2.703-.795.683-.531 1.028-1.143 1.028-1.834 0-1.286-1.237-2.541-3.7-3.762l-2.864-1.41c-5.47-2.71-8.206-6.107-8.206-10.188 0-2.63 1.032-4.878 3.093-6.745C144.4 12.934 147.035 12 150.25 12c2.197 0 4.265.475 6.202 1.422 1.937.95 3.581 2.312 4.93 4.086zM168 0h8.434v16.52c1.659-1.434 3.329-2.508 5.009-3.228 1.68-.717 3.384-1.074 5.107-1.074 3.359 0 6.191 1.164 8.495 3.493 1.97 2.014 2.955 4.976 2.955 8.88V47h-8.372V32.136c0-3.928-.185-6.588-.559-7.98-.371-1.393-1.01-2.433-1.914-3.118-.903-.686-2.016-1.025-3.346-1.025-1.724 0-3.2.571-4.435 1.71-1.234 1.143-2.09 2.703-2.566 4.676-.25 1.02-.374 3.345-.374 6.98V47H168V0zm54.442 19.863c-2.605 0-4.772.902-6.502 2.708-1.73 1.806-2.595 4.112-2.595 6.928 0 2.896.853 5.244 2.569 7.034 1.706 1.797 3.873 2.695 6.494 2.695 2.622 0 4.802-.908 6.546-2.723 1.743-1.815 2.614-4.151 2.614-7.006 0-2.857-.858-5.175-2.568-6.96-1.711-1.783-3.895-2.676-6.558-2.676zM222.304 12c3.146 0 6.106.784 8.877 2.357 2.775 1.57 4.934 3.7 6.489 6.393 1.553 2.691 2.33 5.6 2.33 8.717 0 3.142-.78 6.079-2.347 8.812-1.564 2.736-3.696 4.868-6.394 6.409-2.698 1.539-5.676 2.312-8.927 2.312-4.785 0-8.87-1.7-12.254-5.096-3.383-3.395-5.078-7.52-5.078-12.375 0-5.2 1.911-9.535 5.738-13.001C214.09 13.509 217.947 12 222.304 12zm22.696.854h7.212v4.173c.78-1.644 1.819-2.893 3.114-3.747A7.55 7.55 0 0 1 259.58 12c1.09 0 2.23.286 3.421.854l-2.621 7.157c-.986-.484-1.795-.73-2.435-.73-1.294 0-2.387.795-3.28 2.376-.898 1.585-1.343 4.693-1.343 9.323l.032 1.616V46H245V12.854zm47.601 12.484c-.553-1.856-1.643-3.363-3.269-4.528-1.628-1.159-3.515-1.744-5.662-1.744-2.336 0-4.382.654-6.14 1.958-1.107.817-2.13 2.255-3.07 4.314h18.141zm8.367 6.58h-26.88c.39 2.364 1.43 4.246 3.111 5.642 1.688 1.398 3.839 2.096 6.454 2.096 3.125 0 5.812-1.092 8.061-3.272l7.05 3.304c-1.757 2.486-3.861 4.327-6.316 5.52-2.45 1.194-5.364 1.792-8.733 1.792-5.23 0-9.491-1.65-12.783-4.944C267.641 38.762 266 34.64 266 29.682c0-5.076 1.64-9.293 4.92-12.649 3.277-3.356 7.388-5.033 12.335-5.033 5.252 0 9.521 1.677 12.809 5.033 3.291 3.356 4.936 7.785 4.936 13.293l-.032 1.592zM175.6 53.665v5.764l2.707.033c1.095 0 1.896-.1 2.405-.317.509-.21.907-.55 1.199-1.022a3 3 0 0 0 .436-1.588c0-.57-.147-1.09-.436-1.563-.292-.471-.674-.809-1.15-1.01-.476-.198-1.251-.297-2.33-.297h-2.83zM174 52h3.186c1.828 0 3.063.083 3.699.25a4.118 4.118 0 0 1 2.245 1.477c.578.743.87 1.677.87 2.804 0 1.129-.285 2.064-.852 2.8-.565.737-1.342 1.23-2.338 1.485-.723.186-2.082.278-4.069.278h-1.14V69H174V52zm13 4.325h1.56v1.851c.464-.729.958-1.274 1.475-1.633.513-.364 1.052-.543 1.612-.543.421 0 .872.142 1.353.432l-.8 1.371c-.318-.146-.587-.22-.806-.22-.506 0-.999.224-1.472.67-.47.445-.832 1.14-1.078 2.08-.191.722-.284 2.183-.284 4.38V69H187V56.325zm13.503 1.233c-1.337 0-2.48.488-3.436 1.465-.958.977-1.436 2.16-1.436 3.546 0 .892.216 1.727.654 2.5a4.592 4.592 0 0 0 1.769 1.789c.743.42 1.56.63 2.449.63a4.88 4.88 0 0 0 2.447-.63 4.635 4.635 0 0 0 1.77-1.79 5.026 5.026 0 0 0 .655-2.499c0-1.387-.48-2.569-1.442-3.546-.964-.977-2.105-1.465-3.43-1.465zm.004-1.558c1.92 0 3.51.687 4.772 2.068 1.15 1.256 1.721 2.746 1.721 4.465 0 1.727-.604 3.237-1.818 4.53-1.21 1.292-2.77 1.937-4.675 1.937-1.91 0-3.473-.645-4.687-1.937-1.21-1.293-1.82-2.803-1.82-4.53 0-1.711.577-3.197 1.723-4.455 1.262-1.384 2.856-2.078 4.784-2.078zm9.304-4c.333 0 .612.127.844.382.23.253.345.56.345.92 0 .351-.116.653-.345.909a1.098 1.098 0 0 1-.844.378c-.33 0-.61-.125-.841-.378a1.309 1.309 0 0 1-.345-.91c0-.36.113-.666.345-.92.231-.254.51-.381.84-.381zm-.715 5.023h1.472v14.04c0 1.026-.172 1.767-.514 2.235-.338.468-.806.702-1.4.702-.49 0-1.04-.127-1.654-.382v-1.412c.387.218.732.322 1.046.322.39 0 .684-.172.877-.524.118-.224.173-.69.173-1.402V57.023zm16.122 4.227c-.215-.848-.532-1.525-.947-2.036-.414-.506-.959-.916-1.637-1.227a5.12 5.12 0 0 0-2.146-.465c-1.237 0-2.298.39-3.185 1.172-.651.564-1.14 1.42-1.47 2.556h9.385zm0 3.329l1.365.708c-.445.863-.965 1.557-1.549 2.09-.59.53-1.252.932-1.983 1.207-.734.277-1.563.416-2.493.416-2.053 0-3.66-.662-4.818-1.983-1.16-1.323-1.74-2.816-1.74-4.484 0-1.565.493-2.966 1.47-4.191 1.246-1.564 2.912-2.342 4.995-2.342 2.148 0 3.862.799 5.147 2.395.909 1.13 1.37 2.54 1.388 4.227h-11.334c.035 1.44.5 2.615 1.403 3.534.905.92 2.022 1.377 3.35 1.377a5.45 5.45 0 0 0 1.873-.328 4.99 4.99 0 0 0 1.548-.871c.421-.362.883-.949 1.378-1.755zM241 58.886l-1.2.782c-1.041-1.444-2.46-2.169-4.258-2.169-1.437 0-2.63.484-3.58 1.455-.949.968-1.425 2.143-1.425 3.53 0 .9.22 1.747.657 2.54a4.677 4.677 0 0 0 1.796 1.853c.762.438 1.618.656 2.561.656 1.733 0 3.148-.72 4.249-2.169l1.2.831a5.778 5.778 0 0 1-2.27 2.069c-.95.49-2.035.736-3.25.736-1.864 0-3.41-.619-4.639-1.863-1.227-1.243-1.841-2.754-1.841-4.534 0-1.197.284-2.31.862-3.337a6.191 6.191 0 0 1 2.366-2.403c1.006-.575 2.132-.863 3.374-.863.78 0 1.533.123 2.26.376.725.246 1.342.575 1.85.975.504.402.937.915 1.288 1.535zM246.074 52h1.52v4.602H250v1.381h-2.407V69h-1.52V57.983H244v-1.381h2.074V52zm11.913 5.668l-.964 1.059c-.808-.826-1.595-1.241-2.363-1.241a1.74 1.74 0 0 0-1.257.514c-.347.342-.523.74-.523 1.194 0 .4.144.783.43 1.146.29.372.892.81 1.813 1.309 1.119.611 1.882 1.201 2.284 1.772.395.577.593 1.222.593 1.943 0 1.016-.338 1.877-1.015 2.58-.673.707-1.517 1.056-2.528 1.056a4.2 4.2 0 0 1-1.932-.467A4.196 4.196 0 0 1 251 67.25l.946-1.136c.767.916 1.584 1.374 2.446 1.374.604 0 1.115-.201 1.543-.611.422-.408.634-.894.634-1.444 0-.456-.139-.862-.419-1.219-.28-.347-.912-.785-1.9-1.318-1.054-.575-1.772-1.143-2.153-1.702a3.34 3.34 0 0 1-.573-1.923c0-.937.306-1.719.91-2.34.61-.62 1.375-.931 2.301-.931 1.078 0 2.162.558 3.252 1.668zM268 52h1.65v15.358H276V69h-8V52zm12.074 0h1.517v4.602H284v1.381h-2.409V69h-1.517V57.983H278v-1.381h2.074V52zm11.506 5.83c-.893 0-1.721.217-2.476.64a4.725 4.725 0 0 0-1.805 1.783 4.772 4.772 0 0 0-.674 2.432c0 .849.228 1.66.68 2.432a4.81 4.81 0 0 0 1.816 1.81c.76.43 1.577.644 2.447.644.878 0 1.711-.212 2.497-.639.787-.427 1.394-1.005 1.816-1.735.427-.73.64-1.554.64-2.467 0-1.392-.48-2.556-1.43-3.491-.95-.937-2.12-1.408-3.511-1.408zM298 52v16.691h-1.583v-2.068c-.672.786-1.429 1.38-2.266 1.78a6.341 6.341 0 0 1-2.75.597c-1.764 0-3.276-.615-4.525-1.854-1.253-1.236-1.876-2.738-1.876-4.509 0-1.735.63-3.219 1.891-4.452 1.263-1.23 2.78-1.846 4.554-1.846 1.027 0 1.957.207 2.784.632.83.418 1.562 1.05 2.188 1.89V52H298zm5.499 14c.413 0 .769.145 1.062.436.29.29.439.647.439 1.065 0 .41-.148.764-.44 1.057A1.445 1.445 0 0 1 303.5 69c-.415 0-.769-.147-1.062-.442A1.44 1.44 0 0 1 302 67.5c0-.418.144-.776.437-1.065.293-.29.647-.436 1.062-.436z"/></g></svg>