<svg width="2182" height="260" viewBox="0 0 2182 260" fill="none" xmlns="http://www.w3.org/2000/svg">
<path d="M1322 256C1322 216.767 1322 177.533 1322 138.3C1322 99.0667 1322 59.8333 1322 20.6C1322 16.5667 1322.28 13.45 1322.83 11.25C1323.94 8.68334 1325.88 6.66668 1328.65 5.20001C1331.97 3.73335 1337.24 3.00002 1344.44 3.00002H1386V256H1322Z" fill="white"/>
<path d="M1022.75 129.5C1022.75 103.467 1025.32 82.0167 1030.45 65.15C1035.95 48.2833 1044.57 35.0833 1056.3 25.55C1068.03 16.0167 1083.07 9.41667 1101.4 5.75001C1120.1 2.08334 1142.65 0.25 1169.05 0.25C1182.62 0.25 1195.63 0.800004 1208.1 1.90001C1220.93 2.63335 1233.95 4.10001 1247.15 6.3C1258.15 8.13334 1265.12 10.7 1268.05 14C1271.35 16.9333 1273 21.15 1273 26.65V40.4C1266.03 37.1 1256.32 34.35 1243.85 32.15C1231.38 29.5833 1218.55 27.75 1205.35 26.65C1192.15 25.55 1180.42 25 1170.15 25C1144.48 25 1123.95 28.1167 1108.55 34.35C1093.52 40.2167 1082.7 50.6667 1076.1 65.7C1069.5 80.7333 1066.2 102 1066.2 129.5C1066.2 157 1069.32 178.45 1075.55 193.85C1081.78 208.883 1092.6 219.517 1108 225.75C1123.77 231.983 1145.4 235.1 1172.9 235.1C1182.8 235.1 1193.98 234.55 1206.45 233.45C1218.92 232.35 1231.02 230.7 1242.75 228.5C1254.48 225.933 1264.57 223.367 1273 220.8V233.45C1273 238.217 1271.35 242.433 1268.05 246.1C1264.75 249.4 1257.42 251.783 1246.05 253.25C1233.22 255.817 1220.38 257.467 1207.55 258.2C1194.72 259.3 1181.52 259.85 1167.95 259.85C1140.82 259.85 1117.9 258.017 1099.2 254.35C1080.5 250.317 1065.47 243.717 1054.1 234.55C1043.1 225.017 1035.03 211.817 1029.9 194.95C1025.13 178.083 1022.75 156.267 1022.75 129.5Z" fill="white"/>
<path d="M615.65 256C615.65 216.767 615.65 177.533 615.65 138.3C615.65 99.0667 615.65 59.8333 615.65 20.6C615.65 16.5667 615.833 13.45 616.2 11.25C616.933 8.68334 618.217 6.66667 620.05 5.2C622.25 3.73334 625.733 3.00001 630.5 3.00001H658V256H615.65Z" fill="white"/>
<path d="M0.900024 256C0.900024 218.967 0.900024 181.933 0.900024 144.9C0.900024 107.867 0.900024 71.0167 0.900024 34.35C0.900024 21.8833 3.10002 13.6333 7.50003 9.60001C12.2667 5.56667 19.9667 3.36668 30.6 3.00001C44.9 2.63334 60.6667 2.45 77.9 2.45C95.5 2.45 112.917 2.45 130.15 2.45C147.75 2.45 163.15 2.81667 176.35 3.55001C191.383 4.28334 204.033 7.40001 214.3 12.9C224.933 18.0333 232.817 25.9167 237.95 36.55C243.45 46.8167 246.2 60.0167 246.2 76.15C246.2 94.4833 242.9 109.7 236.3 121.8C230.067 133.9 221.083 142.7 209.35 148.2C197.983 153.7 184.233 156.45 168.1 156.45C149.767 156.45 130.883 156.45 111.45 156.45C92.3834 156.45 73.3167 156.45 54.25 156.45C54.25 150.217 54.25 145.45 54.25 142.15C54.6167 138.85 55.35 136.467 56.45 135C57.9167 133.533 60.3 132.8 63.6 132.8C69.4667 132.8 77.5334 132.8 87.8 132.8C98.4334 132.8 109.617 132.8 121.35 132.8C133.083 132.8 143.717 132.8 153.25 132.8C162.05 132.8 170.117 131.15 177.45 127.85C185.15 124.55 191.2 118.683 195.6 110.25C200.367 101.817 202.75 90.2667 202.75 75.6C202.75 61.3 199.817 50.1167 193.95 42.05C188.083 33.6167 178.367 29.0333 164.8 28.3C153.433 27.2 140.783 26.65 126.85 26.65C112.917 26.2833 99.7167 26.2833 87.25 26.65C75.15 26.65 64.8834 26.8333 56.45 27.2C54.6167 27.2 51.8667 28.1167 48.2 29.95C44.9 31.4167 43.25 34.9 43.25 40.4C43.25 76.3334 43.25 112.267 43.25 148.2C43.25 183.767 43.25 219.7 43.25 256H0.900024Z" fill="white"/>
<path d="M724 256V25.55C724 15.65 724.733 9.41668 726.2 6.85002C728.033 4.28335 732.983 3.00002 741.05 3.00002H777.9L941.8 212.55L943.45 213.65V3.00002H974.26C974.26 3.00002 974.25 5.00002 974.25 7.50002C974.25 9.50002 974.25 12.1667 974.25 15.1C974.25 17.6667 974.25 20.2333 974.25 22.8V235.1C974.25 244.633 972.967 250.5 970.4 252.7C968.2 254.9 963.25 256 955.55 256H921.45L755.9 44.8L755.35 42.6V256H724Z" fill="white"/>
<path d="M450.2 152.15C450.2 152.15 445.067 152.15 434.8 152.15C424.533 152.15 410.783 152.15 393.55 152.15C376.317 152.15 357.25 152.333 336.35 152.7V256.1H294V31.7001C294 21.0668 296.2 13.7334 300.6 9.70011C305.367 5.66677 313.067 3.46677 323.7 3.10011C329.2 2.73344 336.35 2.5501 345.15 2.5501C354.317 2.5501 364.4 2.5501 375.4 2.5501C386.4 2.18344 397.583 2.00011 408.95 2.00011C420.683 2.00011 431.867 2.00011 442.5 2.00011C453.5 2.00011 463.217 2.18344 471.65 2.5501C480.083 2.91678 486.683 3.28344 491.45 3.6501C510.517 5.48344 524.45 11.9001 533.25 22.9001C542.05 33.5334 546.45 49.4834 546.45 70.7501C546.45 87.6168 544.067 101 539.3 110.9C534.9 120.8 529.117 128.333 519.95 133.1C515.046 135.65 516.017 134.917 513.45 135.65C511.25 136.017 508.867 136.2 506.3 136.2V137.3C507.767 137.3 509.617 137.3 511.45 137.3C513.283 137.3 514.55 137.3 515.65 137.3C524.1 138.1 538.017 145.55 540.95 154.35C543.883 162.783 545.35 171.4 545.35 180.2V242.9C545.35 246.567 545.35 249.1 545.35 252.1C545.35 254.1 545.35 256.1 545.35 256.1H518.4C513.267 256.1 509.233 255.183 506.3 253.35C503.367 251.517 501.9 247.117 501.9 240.15V181.85C501.9 170.483 499.333 162.783 494.2 158.75C489.433 154.35 480.817 152.15 468.35 152.15H450.2ZM336.35 129.05C341.483 129.05 349.55 129.233 360.55 129.6C371.55 129.6 383.467 129.6 396.3 129.6C409.5 129.6 421.6 129.6 432.6 129.6C443.6 129.6 451.667 129.6 456.8 129.6C468.9 129.6 479.533 125.933 488.7 118.6C498.233 110.9 503 96.7834 503 76.2501C503 62.3168 500.25 51.3168 494.75 43.2501C489.617 34.8168 481.183 29.8668 469.45 28.4001C461.75 27.3001 452.217 26.7501 440.85 26.7501C429.483 26.3834 417.75 26.3834 405.65 26.7501C393.55 26.7501 382.367 26.9334 372.1 27.3001C361.833 27.3001 354.133 27.3001 349 27.3001C347.9 27.3001 345.517 28.0334 341.85 29.5001C338.183 30.6001 336.35 34.2668 336.35 40.5001V129.05Z" fill="white"/>
<path d="M1744.45 3.00001V231.8H1913.3V256H1702.65V21.15C1702.65 17.1167 1702.83 13.8167 1703.2 11.25C1703.57 8.68334 1704.85 6.66667 1707.05 5.2C1709.25 3.73334 1712.73 3.00001 1717.5 3.00001H1744.45Z" fill="white"/>
<path d="M1948.26 256V20.6C1948.26 14 1949.18 9.41668 1951.01 6.85001C1952.84 4.28335 1956.88 3.00001 1963.11 3.00001H2181.46V27.2H1990.61V111.35H2165.51V135.55H1990.61V231.8H2181.46V256H1948.26Z" fill="white"/>
<path d="M1386 3.00002H1648V256H1386V3.00002Z" fill="white"/>
<path d="M1402.9 256C1402.9 218.967 1402.9 181.933 1402.9 144.9C1402.9 107.867 1402.9 71.0167 1402.9 34.35C1402.9 21.8833 1405.1 13.6333 1409.5 9.60001C1414.27 5.56667 1421.97 3.36668 1432.6 3.00001C1446.9 2.63334 1462.67 2.45 1479.9 2.45C1497.5 2.45 1514.92 2.45 1532.15 2.45C1549.75 2.45 1565.15 2.81667 1578.35 3.55001C1593.38 4.28334 1606.03 7.40001 1616.3 12.9C1626.93 18.0333 1634.82 25.9167 1639.95 36.55C1645.45 46.8167 1648.2 60.0167 1648.2 76.15C1648.2 94.4833 1644.9 109.7 1638.3 121.8C1632.07 133.9 1623.08 142.7 1611.35 148.2C1599.98 153.7 1586.23 156.45 1570.1 156.45C1551.77 156.45 1532.88 156.45 1513.45 156.45C1494.38 156.45 1475.32 156.45 1456.25 156.45C1456.25 150.217 1456.25 145.45 1456.25 142.15C1456.62 138.85 1457.35 136.467 1458.45 135C1459.92 133.533 1462.3 132.8 1465.6 132.8C1471.47 132.8 1479.53 132.8 1489.8 132.8C1500.43 132.8 1511.62 132.8 1523.35 132.8C1535.08 132.8 1545.72 132.8 1555.25 132.8C1564.05 132.8 1572.12 131.15 1579.45 127.85C1587.15 124.55 1593.2 118.683 1597.6 110.25C1602.37 101.817 1604.75 90.2667 1604.75 75.6C1604.75 61.3 1601.82 50.1167 1595.95 42.05C1590.08 33.6167 1580.37 29.0333 1566.8 28.3C1555.43 27.2 1542.78 26.65 1528.85 26.65C1514.92 26.2833 1501.72 26.2833 1489.25 26.65C1477.15 26.65 1466.88 26.8333 1458.45 27.2C1456.62 27.2 1453.87 28.1167 1450.2 29.95C1446.9 31.4167 1445.25 34.9 1445.25 40.4C1445.25 76.3334 1445.25 112.267 1445.25 148.2C1445.25 183.767 1445.25 219.7 1445.25 256H1402.9Z" fill="black"/>
</svg>
